<?xml version="1.0" standalone="no"?>
<!DOCTYPE svg PUBLIC "-//W3C//DTD SVG 20010904//EN"
 "http://www.w3.org/TR/2001/REC-SVG-20010904/DTD/svg10.dtd">
<svg version="1.0" xmlns="http://www.w3.org/2000/svg"
 width="320.000000pt" height="124.000000pt" viewBox="0 0 320.000000 124.000000"
 preserveAspectRatio="xMidYMid meet">
<metadata>
Created by potrace 1.15, written by Peter Selinger 2001-2017
</metadata>
<g transform="translate(0.000000,124.000000) scale(0.100000,-0.100000)"
fill="#000000" stroke="none">
<path d="M1119 829 c-46 -17 -49 -40 -49 -334 l0 -274 24 -28 24 -28 172 0
c168 0 172 0 191 24 24 29 24 53 0 82 -18 22 -27 24 -135 27 l-116 4 0 233 c0
255 -4 277 -53 295 -16 5 -30 10 -31 9 -1 0 -13 -5 -27 -10z"/>
<path d="M1555 830 c-49 -19 -50 -25 -50 -325 0 -309 3 -325 57 -344 17 -6 38
-7 51 -2 52 20 52 23 52 338 l0 295 -28 24 c-29 25 -48 28 -82 14z"/>
<path d="M1831 830 c-18 -4 -43 -18 -55 -29 -20 -21 -21 -29 -21 -316 0 -266
2 -296 17 -312 26 -26 86 -22 109 6 17 21 19 43 20 200 l1 176 42 -165 c46
-177 56 -204 86 -220 33 -18 115 -12 134 9 10 11 39 104 66 213 l49 193 1
-196 c0 -183 1 -197 20 -214 29 -26 79 -24 102 4 17 21 18 46 18 308 l0 285
-29 29 c-26 26 -36 29 -90 29 -48 0 -65 -5 -86 -22 -28 -25 -29 -28 -91 -293
l-37 -159 -48 199 c-27 110 -53 210 -58 222 -20 44 -87 68 -150 53z"/>
<path d="M2685 823 c-97 -35 -171 -116 -196 -216 -17 -69 -8 -211 18 -269 53
-117 161 -188 287 -188 138 0 240 61 298 177 31 64 33 73 33 178 0 91 -4 117
-21 152 l-21 41 33 -5 c22 -4 42 0 59 11 51 34 21 136 -40 136 -50 0 -95 -62
-74 -102 7 -12 -3 -6 -24 14 -57 57 -119 82 -217 85 -63 3 -98 -1 -135 -14z
m195 -146 c58 -39 75 -79 75 -182 0 -72 -4 -97 -20 -124 -29 -49 -67 -73 -122
-78 -39 -4 -55 0 -83 19 -108 72 -109 294 -1 365 45 30 107 30 151 0z"/>
<path d="M55 819 c-44 -25 -45 -30 -45 -325 0 -263 1 -283 19 -305 19 -24 23
-24 193 -24 156 0 178 2 220 22 115 53 144 204 58 295 -39 40 -39 42 -20 55
31 22 50 67 50 118 0 66 -22 109 -71 142 -42 28 -45 28 -213 31 -114 1 -178
-2 -191 -9z m305 -144 c17 -21 16 -64 -3 -82 -12 -12 -38 -16 -101 -17 l-86
-1 0 58 0 57 89 0 c67 0 92 -4 101 -15z m10 -255 c23 -23 25 -48 9 -84 -15
-32 -28 -37 -126 -43 l-83 -6 0 77 0 76 90 0 c77 0 93 -3 110 -20z"/>
<path d="M615 805 l-25 -24 0 -269 c0 -164 4 -281 11 -300 16 -48 45 -54 239
-50 167 3 172 4 191 27 24 29 24 53 0 82 -18 23 -27 24 -150 27 l-131 4 0 74
0 74 128 0 c112 0 131 2 145 18 23 25 21 65 -4 88 -18 16 -40 20 -145 22
l-124 4 0 59 0 59 128 0 c144 0 162 8 162 68 0 56 -21 62 -223 62 -176 0 -178
0 -202 -25z"/>
</g>
</svg>
